<svg width="1800" height="104" viewBox="0 0 1800 104" fill="none" xmlns="http://www.w3.org/2000/svg">
<path d="M-25.5518 69.4908V16.8107H-46V9.35923H2.95439V16.8107H-17.4072V69.4908H-25.5518Z" fill="white"/>
<path d="M18.0332 70.3573C5.64294 70.3573 -3.71471 61.1729 -3.71471 48.8693C-3.71471 36.8257 5.55629 27.468 17.5133 27.468C28.7771 27.468 36.9218 35.9592 36.9218 47.6563C36.9218 48.8693 36.8351 50.169 36.4885 51.8153H4.25662C5.46965 58.6602 10.6683 62.9925 18.0332 62.9925C22.6254 62.9925 26.6977 61.4328 29.3837 58.1403L34.4091 63.2524C30.4234 67.8446 24.5315 70.3573 18.0332 70.3573ZM17.34 34.6596C10.4084 34.6596 5.46965 38.8185 4.25662 45.3169H29.297C28.4306 38.6452 24.0983 34.6596 17.34 34.6596Z" fill="white"/>
<path d="M61.964 70.3573C50.6135 70.3573 41.8624 60.9996 41.8624 48.956C41.8624 36.9123 50.6135 27.468 61.964 27.468C67.7692 27.468 72.708 29.8941 75.6539 33.9664V28.3345H83.5386V69.4908H75.6539V63.9455C72.708 67.9312 67.8559 70.3573 61.964 70.3573ZM63.2637 62.9925C70.9751 62.9925 76.1738 57.2739 76.1738 48.956C76.1738 40.5514 70.9751 34.8328 63.1771 34.8328C55.379 34.8328 49.9204 40.6381 49.9204 48.8693C49.9204 57.1006 55.4657 62.9925 63.2637 62.9925Z" fill="white"/>
<path d="M93.9291 69.4908V28.3345H101.727V33.0999C104.586 29.5475 109.005 27.468 114.117 27.468C120.009 27.468 124.948 30.2407 127.634 34.9195C130.493 30.2407 135.692 27.468 141.584 27.468C150.422 27.468 157.44 33.4465 157.44 43.0641V69.4908H149.555V44.6237C149.555 38.4719 145.396 34.7462 139.764 34.7462C134.046 34.7462 129.54 38.4719 129.54 44.5371V69.4908H121.742V44.6237C121.742 38.4719 117.583 34.7462 111.865 34.7462C106.233 34.7462 101.727 38.4719 101.727 44.5371V69.4908H93.9291Z" fill="white"/>
<path d="M171.074 20.1032C168.215 20.1032 166.135 17.9371 166.135 15.0778C166.135 12.3052 168.215 10.139 171.074 10.139C173.933 10.139 176.013 12.3052 176.013 15.0778C176.013 17.9371 173.933 20.1032 171.074 20.1032ZM167.175 69.4908V28.3345H174.973V69.4908H167.175Z" fill="white"/>
<path d="M185.502 69.4908V7.62633H193.3V69.4908H185.502Z" fill="white"/>
<path d="M222.549 70.3573C210.505 70.3573 201.061 60.8263 201.061 48.7827C201.061 36.8257 210.419 27.468 222.549 27.468C234.506 27.468 244.037 36.8257 244.037 48.7827C244.037 60.913 234.593 70.3573 222.549 70.3573ZM222.549 62.8192C230.347 62.8192 235.979 56.9273 235.979 48.7827C235.979 40.7247 230.26 35.0061 222.549 35.0061C214.751 35.0061 209.119 40.8113 209.119 48.7827C209.119 56.9273 214.751 62.8192 222.549 62.8192Z" fill="white"/>
<path d="M790.749 54.8382H774.893V77.1926H766.402V14.5483H790.749C803.053 14.5483 810.938 22.6063 810.938 34.6499C810.938 46.347 802.966 54.8382 790.749 54.8382ZM789.276 22.1731H774.893V47.2134H788.93C797.334 47.2134 802.013 42.2747 802.013 34.5633C802.013 26.6786 797.248 22.1731 789.276 22.1731Z" fill="white"/>
<path d="M813.487 55.9646C813.487 42.8812 822.845 33.6968 835.582 33.6968C848.232 33.6968 857.59 42.8812 857.59 55.9646C857.59 69.048 848.232 78.2323 835.582 78.2323C822.845 78.2323 813.487 69.048 813.487 55.9646ZM821.719 55.9646C821.719 64.8024 827.351 70.9542 835.582 70.9542C843.727 70.9542 849.445 64.8024 849.445 55.9646C849.445 47.1268 843.727 40.975 835.582 40.975C827.351 40.975 821.719 47.1268 821.719 55.9646Z" fill="white"/>
<path d="M889.903 34.4766V41.9281H886.264C878.553 41.9281 873.787 46.6069 873.787 54.7516V77.1926H865.643V34.9099H873.268L873.787 41.3216C875.52 36.9027 879.766 33.9568 885.571 33.9568C887.044 33.9568 888.257 34.1301 889.903 34.4766Z" fill="white"/>
<path d="M910.229 77.1926H902.084V41.6682H893.766V34.8232H902.084V21.5665H910.229V34.8232H918.547V41.6682H910.229V77.1926Z" fill="white"/>
<path d="M936.776 78.2323C927.678 78.2323 922.306 73.1203 922.306 65.4089C922.306 57.6108 928.112 52.7587 938.076 51.9789L951.419 50.9392V49.7261C951.419 42.6213 947.173 40.1086 941.455 40.1086C934.61 40.1086 930.711 43.1411 930.711 48.2532H923.606C923.606 39.4154 930.884 33.6102 941.801 33.6102C952.285 33.6102 959.39 39.1555 959.39 50.5926V77.1926H952.459L951.592 70.3476C949.426 75.1998 943.621 78.2323 936.776 78.2323ZM939.115 71.9072C946.827 71.9072 951.506 66.8818 951.506 58.9105V56.6577L940.675 57.5242C933.483 58.2174 930.538 60.99 930.538 65.1489C930.538 69.6545 933.83 71.9072 939.115 71.9072Z" fill="white"/>
<path d="M978.025 77.1926H969.88V13.4219H978.025V77.1926Z" fill="white"/>
<path d="M470.723 63.3478V78.2258C464.518 78.2258 459.206 76.1575 454.787 72.0208C454.74 71.9268 454.646 71.8092 454.505 71.6682C454.364 71.4802 454.247 71.3627 454.153 71.3157C449.17 74.7002 443.717 76.8156 437.794 77.6617C431.871 78.5079 426.042 77.9908 420.307 76.1105C414.572 74.1831 409.542 71.0101 405.218 66.5914C400.47 61.6085 397.273 55.8501 395.628 49.316C393.983 42.7349 394.053 36.2008 395.84 29.7137C397.673 23.1796 401.057 17.5151 405.993 12.7203C410.976 7.97254 416.735 4.79951 423.269 3.20124C429.85 1.55596 436.384 1.64998 442.871 3.48328C449.405 5.26958 455.069 8.63065 459.864 13.5665L460.217 13.919C464.73 18.6668 467.809 24.1668 469.454 30.4188C471.099 36.6238 471.17 42.8289 469.665 49.0339C468.161 55.239 465.223 60.7389 460.851 65.5337C461.275 65.5807 461.909 65.6042 462.755 65.6042C465.529 65.6042 468.185 64.8521 470.723 63.3478ZM449.358 58.553C451.426 61.3265 453.847 63.3008 456.621 64.476C460.005 60.8094 461.909 56.1321 462.332 50.4442C462.802 44.0981 461.392 37.7755 458.101 31.4765C454.858 25.1304 450.345 19.8655 444.563 15.6818C438.828 11.4981 432.811 9.19474 426.512 8.77167C419.931 8.30159 414.408 10.0409 409.942 13.9895C405.523 17.8912 403.055 23.1326 402.538 29.7137C402.209 34.5555 402.985 39.4443 404.865 44.3801C406.745 49.316 409.331 53.6877 412.621 57.4953C415.959 61.303 419.884 64.476 424.397 67.0144C428.957 69.5059 433.61 70.8926 438.358 71.1746C443.247 71.5037 447.619 70.6105 451.473 68.4952C448.653 65.2046 446.773 61.8906 445.832 58.553H449.358Z" fill="#4678FF"/>
<path d="M527.228 75.2643C528.403 72.8669 529.037 70.7516 529.131 68.9183V40.2905C529.131 38.9272 528.685 37.705 527.792 36.6238C526.945 35.5427 525.841 34.9316 524.478 34.7905C520.576 34.4145 517.05 37.3055 513.901 43.4635V68.9888V68.9183C513.995 70.7516 514.629 72.8669 515.805 75.2643C516.04 75.7814 516.298 76.2985 516.58 76.8156C516.909 77.2857 517.168 77.6382 517.356 77.8733L517.638 78.2258H499.023C499.728 77.4267 500.362 76.4395 500.927 75.2643C502.008 72.9609 502.619 70.8456 502.76 68.9183V40.2905C502.76 38.9272 502.337 37.705 501.491 36.6238C500.645 35.5427 499.54 34.9316 498.177 34.7905C496.907 34.6495 495.709 34.8375 494.581 35.3546C493.452 35.8247 492.489 36.5063 491.69 37.3995C490.89 38.2926 490.232 39.1388 489.715 39.9379C489.198 40.737 488.705 41.6067 488.234 42.5468C487.811 43.44 487.576 43.9101 487.529 43.9571V68.9888C487.717 70.9161 488.352 73.0079 489.433 75.2643C489.668 75.7814 489.927 76.2985 490.209 76.8156C490.538 77.2857 490.796 77.6382 490.984 77.8733L491.266 78.2258H472.722C473.427 77.4267 474.062 76.4395 474.626 75.2643C475.519 73.478 476.106 71.5742 476.388 69.5529V37.3995C476.247 35.4722 475.636 33.3568 474.555 31.0534C474.32 30.5363 474.038 30.0427 473.709 29.5727C473.38 29.0556 473.121 28.703 472.933 28.515L472.651 28.1624H484.497C485.344 28.7265 486.025 29.9017 486.542 31.688C487.059 33.4273 487.365 35.0491 487.459 36.5533L487.529 38.8097C490.585 35.2371 492.747 32.9807 494.016 32.0406C495.004 31.2885 495.732 30.7479 496.202 30.4188C496.672 30.0897 497.566 29.6667 498.882 29.1496C500.198 28.5855 501.491 28.2564 502.76 28.1624C505.533 27.9744 507.954 28.9616 510.023 31.1239C512.138 33.2863 513.407 35.8482 513.83 38.8097C516.745 35.3781 518.931 33.1218 520.388 32.0406C521.375 31.2885 522.104 30.7479 522.574 30.4188C523.044 30.0897 523.937 29.6667 525.253 29.1496C526.569 28.5855 527.862 28.2564 529.131 28.1624C532.187 27.9744 534.796 29.1731 536.958 31.7585C539.168 34.344 540.272 37.2584 540.272 40.502V68.9888V68.9183C540.413 70.8456 541.024 72.9609 542.106 75.2643C542.341 75.7814 542.623 76.2985 542.952 76.8156C543.281 77.2857 543.539 77.6382 543.727 77.8733L544.009 78.2258H525.394C526.052 77.4267 526.663 76.4395 527.228 75.2643Z" fill="#4678FF"/>
<path d="M559.546 69.0593C559.734 71.0806 560.346 73.1725 561.38 75.3348C561.615 75.8519 561.897 76.369 562.226 76.8861C562.555 77.3562 562.813 77.6852 563.001 77.8733L563.284 78.2258H544.668C545.373 77.4737 546.008 76.51 546.572 75.3348C547.465 73.5485 548.053 71.6212 548.335 69.5529V37.3995C548.147 35.3781 547.536 33.2863 546.502 31.1239C546.267 30.6068 545.985 30.1133 545.656 29.6432C545.326 29.1261 545.068 28.75 544.88 28.515L544.598 28.1624H563.284C562.578 28.9616 561.944 29.9487 561.38 31.1239C560.346 33.2863 559.734 35.3781 559.546 37.3995V69.0593ZM557.995 17.5857C556.867 18.7138 555.504 19.2779 553.905 19.2779C552.307 19.2779 550.944 18.7138 549.816 17.5857C548.688 16.4105 548.123 15.0237 548.123 13.4255C548.123 11.8272 548.688 10.464 549.816 9.33577C550.944 8.20758 552.307 7.64348 553.905 7.64348C555.504 7.64348 556.867 8.20758 557.995 9.33577C559.17 10.464 559.758 11.8272 559.758 13.4255C559.758 15.0237 559.17 16.4105 557.995 17.5857Z" fill="#4678FF"/>
<path d="M577.481 17.5857C576.353 18.7138 574.989 19.2779 573.391 19.2779C571.793 19.2779 570.43 18.7138 569.301 17.5857C568.173 16.4105 567.609 15.0237 567.609 13.4255C567.609 11.8272 568.173 10.464 569.301 9.33577C570.43 8.20758 571.793 7.64348 573.391 7.64348C574.989 7.64348 576.353 8.20758 577.481 9.33577C578.609 10.464 579.173 11.8272 579.173 13.4255C579.173 15.0237 578.609 16.4105 577.481 17.5857ZM564.084 28.1624H582.699C582.041 28.9616 581.43 29.9487 580.865 31.1239C579.784 33.3803 579.15 35.4957 578.962 37.47V87.7449C578.915 92.1637 577.481 95.9243 574.66 99.0268C571.887 102.129 568.338 103.704 564.013 103.751H560.77C560.958 103.657 561.216 103.493 561.545 103.258C561.874 103.022 562.438 102.458 563.237 101.565C564.037 100.672 564.742 99.6614 565.353 98.5332C565.964 97.452 566.528 95.9243 567.045 93.95C567.562 92.0226 567.821 89.9308 567.821 87.6744V37.47C567.633 35.3546 567.022 33.2393 565.987 31.1239C565.752 30.6068 565.47 30.1133 565.141 29.6432C564.812 29.1261 564.554 28.75 564.366 28.515L564.084 28.1624Z" fill="#4678FF"/>
<path d="M1106.59 75.2672V15.4821H1117.68L1136.74 56.032L1155.8 15.4821H1166.98V75.2672H1158.14V29.6919L1140.73 66.8626H1132.84L1115.34 29.6919V75.2672H1106.59Z" fill="#4678FF"/>
<path d="M1179.97 21.8939V12.7095H1188.99V21.8939H1179.97ZM1180.32 75.2672V30.0385H1188.73V75.2672H1180.32Z" fill="#4678FF"/>
<path d="M1200.58 61.9238V43.2952C1200.58 34.4574 1205 30.0385 1213.84 30.0385H1230.56L1234.54 32.9844V37.4033H1214.1C1210.69 37.4033 1208.98 39.0784 1208.98 42.4287V62.7903C1208.98 66.1983 1210.69 67.9023 1214.1 67.9023H1234.54V72.3212L1230.56 75.2672H1213.84C1205 75.2672 1200.58 70.8194 1200.58 61.9238Z" fill="#4678FF"/>
<path d="M1243.96 75.2672V35.4105C1245.98 31.8292 1249.83 30.0385 1255.49 30.0385H1264.41L1268.4 32.9844V37.4033H1257.13C1254.88 37.4033 1253.29 37.9809 1252.37 39.1362V75.2672H1243.96Z" fill="#4678FF"/>
<path d="M1275.74 61.9238V43.2952C1275.74 34.4574 1280.16 30.0385 1288.99 30.0385H1301.12C1309.96 30.0385 1314.38 34.4574 1314.38 43.2952V61.9238C1314.38 70.8194 1309.96 75.2672 1301.12 75.2672H1288.99C1280.16 75.2672 1275.74 70.8194 1275.74 61.9238ZM1284.14 62.7903C1284.14 66.1983 1285.85 67.9023 1289.25 67.9023H1300.95C1304.3 67.9023 1305.98 66.1983 1305.98 62.7903V42.4287C1305.98 39.0784 1304.3 37.4033 1300.95 37.4033H1289.25C1285.85 37.4033 1284.14 39.0784 1284.14 42.4287V62.7903Z" fill="#4678FF"/>
<path d="M1324.5 72.3212V67.9023H1344.52C1347.93 67.9023 1349.63 66.1694 1349.63 62.7036C1349.63 59.1223 1348.24 57.1006 1345.47 56.6385L1335.51 54.9922C1328.17 53.7214 1324.5 49.678 1324.5 42.8619C1324.5 34.313 1328.95 30.0385 1337.85 30.0385H1351.97L1355.96 32.9844V37.4033H1338.02C1334.55 37.4033 1332.82 39.1362 1332.82 42.602C1332.82 45.8368 1334.27 47.7141 1337.15 48.2339L1347.21 49.8802C1354.43 51.0932 1358.04 55.2522 1358.04 62.357C1358.04 70.9638 1353.56 75.2672 1344.61 75.2672H1328.49L1324.5 72.3212Z" fill="#4678FF"/>
<path d="M1368.07 61.9238V43.2952C1368.07 34.4574 1372.49 30.0385 1381.33 30.0385H1393.46C1402.3 30.0385 1406.72 34.4574 1406.72 43.2952V61.9238C1406.72 70.8194 1402.3 75.2672 1393.46 75.2672H1381.33C1372.49 75.2672 1368.07 70.8194 1368.07 61.9238ZM1376.48 62.7903C1376.48 66.1983 1378.18 67.9023 1381.59 67.9023H1393.29C1396.64 67.9023 1398.31 66.1983 1398.31 62.7903V42.4287C1398.31 39.0784 1396.64 37.4033 1393.29 37.4033H1381.59C1378.18 37.4033 1376.48 39.0784 1376.48 42.4287V62.7903Z" fill="#4678FF"/>
<path d="M1418.57 75.2672V24.4932C1418.57 15.5977 1422.99 11.1499 1431.83 11.1499H1439.89L1443.87 14.0958V18.5147H1432.09C1428.68 18.5147 1426.98 20.2187 1426.98 23.6268V30.0385H1443.01V37.4033H1426.98V75.2672H1418.57Z" fill="#4678FF"/>
<path d="M1451.02 61.9238V15.4821H1459.43V30.0385H1475.46V37.4033H1459.43V62.7903C1459.43 66.1983 1461.13 67.9023 1464.54 67.9023H1476.32V72.3212L1472.34 75.2672H1464.28C1455.44 75.2672 1451.02 70.8194 1451.02 61.9238Z" fill="#4678FF"/>
<path d="M1629.76 74.6297C1629.26 74.2913 1629 73.9246 1629 73.5297C1628.94 73.1349 1629.03 72.74 1629.26 72.3451C1629.48 71.8939 1629.82 71.4426 1630.27 70.9913C1630.72 70.5964 1631.26 69.5811 1631.88 67.9452C1632.5 66.3657 1633.15 64.4478 1633.82 62.1914C1634.56 59.8786 1635.26 57.3684 1635.94 54.6608C1636.67 51.9531 1637.35 49.3019 1637.97 46.707C1638.59 44.1122 1639.13 41.7148 1639.58 39.5148C1640.03 37.3149 1640.37 35.5662 1640.59 34.2687C1640.88 32.6893 1641.19 30.9688 1641.52 29.1073C1641.81 27.4714 1642.12 25.5817 1642.45 23.4381C1642.79 21.2382 1643.1 18.8126 1643.39 16.1613L1650.15 13.1152C1651.11 12.6639 1651.79 12.7767 1652.19 13.4537C1652.58 14.0742 1652.58 15.3998 1652.19 17.4305C1652.02 18.4459 1651.71 20.11 1651.25 22.4228C1650.8 24.6791 1650.27 27.1894 1649.65 29.9534C1649.08 32.6611 1648.46 35.4534 1647.79 38.3302C1647.17 41.1507 1646.54 43.6609 1645.92 45.8609C1645.36 47.948 1644.71 50.3454 1643.98 53.0531C1642.68 57.6787 1640.88 63.9965 1638.56 72.0067C1639.35 73.3605 1640.82 74.0374 1642.96 74.0374C1645.33 74.0374 1648.07 73.1349 1651.17 71.3298C1654.33 69.5247 1657.38 66.817 1660.31 63.2068C1663.24 59.5966 1665.81 55.0838 1668.01 49.6685C1670.26 44.1968 1671.68 37.8225 1672.24 30.5457C1672.52 26.5971 1672.32 23.1279 1671.65 20.1382C1670.97 17.1485 1669.93 14.6383 1668.52 12.6075C1667.16 10.5768 1665.47 9.05372 1663.44 8.03835C1661.46 7.02298 1659.26 6.51529 1656.84 6.51529C1651.14 6.51529 1645.25 8.88449 1639.15 13.6229L1638.73 6.59991C1640.2 4.96403 1641.86 3.72302 1643.72 2.87688C1645.64 1.97433 1647.42 1.29742 1649.05 0.846142C1650.97 0.338457 1652.92 0.0564095 1654.89 0C1658.5 0 1661.97 0.705118 1665.3 2.11536C1668.69 3.46918 1671.59 5.55633 1674.02 8.37681C1676.5 11.1973 1678.39 14.7511 1679.69 19.0382C1680.98 23.2689 1681.43 28.2329 1681.04 33.9303C1680.81 37.202 1680.14 40.6148 1679.01 44.1686C1677.94 47.666 1676.5 51.107 1674.69 54.4915C1672.94 57.8761 1670.86 61.0914 1668.43 64.1376C1666.01 67.1837 1663.35 69.8349 1660.48 72.0913C1657.6 74.4041 1654.53 76.2092 1651.25 77.5066C1647.98 78.8604 1644.6 79.5373 1641.1 79.5373C1640.03 79.4809 1638.87 79.2835 1637.63 78.945C1636.56 78.663 1635.35 78.1835 1633.99 77.5066C1632.64 76.8297 1631.23 75.8707 1629.76 74.6297Z" fill="white"/>
<path d="M1703.43 11.4229C1703.43 11.9306 1703.23 12.5511 1702.84 13.2844C1702.5 13.9613 1702.02 14.6101 1701.4 15.2306C1700.83 15.7947 1700.19 16.3023 1699.45 16.7536C1698.78 17.1485 1698.07 17.3459 1697.34 17.3459C1696.72 17.3459 1696.15 17.0357 1695.65 16.4152C1695.14 15.7947 1694.91 14.9485 1694.97 13.8767C1694.97 13.1434 1695.17 12.3819 1695.56 11.5921C1696.01 10.746 1696.55 9.98448 1697.17 9.30756C1697.85 8.63065 1698.55 8.09476 1699.28 7.69989C1700.07 7.24862 1700.81 7.02298 1701.48 7.02298C1702.44 7.02298 1703.01 7.47425 1703.18 8.37681C1703.4 9.27936 1703.49 10.2947 1703.43 11.4229ZM1673.81 102.129C1672.29 102.129 1670.97 101.706 1669.84 100.86C1668.71 100.014 1667.81 98.9422 1667.13 97.6448C1666.4 96.3474 1665.86 94.9371 1665.52 93.4141C1665.18 91.891 1665.04 90.4526 1665.1 89.0987C1665.16 87.9142 1665.61 86.3911 1666.45 84.5296C1667.24 82.6681 1668.37 80.6655 1669.84 78.522C1671.3 76.4348 1673.08 74.2913 1675.17 72.0913C1677.26 69.9477 1679.57 68.0298 1682.11 66.3375C1682.45 64.5888 1682.81 62.8119 1683.21 61.0068C1683.55 59.1453 1683.88 57.3684 1684.22 55.6761C1684.56 53.9274 1684.9 52.2916 1685.24 50.7685C1685.63 49.1891 1686 47.807 1686.34 46.6224C1686.73 45.0994 1687.16 43.4917 1687.61 41.7994C1688 40.3328 1688.45 38.7251 1688.96 36.9764C1689.47 35.1713 1690 33.3662 1690.57 31.5611C1691.13 31.279 1691.67 31.0816 1692.18 30.9688C1692.68 30.856 1693.14 30.7714 1693.53 30.715C1693.98 30.6585 1694.4 30.6585 1694.8 30.715C1695.19 30.7714 1695.59 30.8842 1695.98 31.0534C1696.72 31.3355 1697.37 31.8431 1697.93 32.5765C1696.97 35.6226 1696.15 38.2174 1695.48 40.361C1694.86 42.5045 1694.32 44.2814 1693.87 45.6917C1693.36 47.3275 1692.97 48.7096 1692.68 49.8378C1692.18 51.4172 1691.72 53.2223 1691.33 55.2531C1690.94 57.2274 1690.48 59.371 1689.98 61.6838C1692.35 60.2171 1694.71 58.4966 1697.08 56.5223C1699.51 54.548 1701.71 52.63 1703.68 50.7685C1705.71 48.8506 1707.41 47.1865 1708.76 45.7763C1710.17 44.3096 1711.05 43.3789 1711.38 42.984C1711.78 42.5327 1712.17 42.3071 1712.57 42.3071C1712.96 42.2507 1713.27 42.3635 1713.5 42.6456C1713.78 42.9276 1713.89 43.3507 1713.84 43.9148C1713.84 44.4225 1713.58 45.0148 1713.08 45.6917C1712.29 46.8199 1711.1 48.2583 1709.52 50.007C1707.94 51.6993 1706.14 53.5044 1704.11 55.4223C1702.08 57.2838 1699.88 59.1735 1697.51 61.0914C1695.19 62.953 1692.88 64.5606 1690.57 65.9145C1690.06 66.1965 1689.5 66.5632 1688.88 67.0144C1688.09 70.3426 1687.32 73.6143 1686.59 76.8297C1685.86 80.045 1685.04 83.0347 1684.14 85.7988C1683.29 88.5064 1682.53 90.8756 1681.85 92.9064C1681.18 94.9935 1680.47 96.714 1679.74 98.0679C1679 99.4217 1678.19 100.437 1677.28 101.114C1676.33 101.791 1675.17 102.129 1673.81 102.129ZM1670.77 91.4679C1670.66 93.4423 1670.8 94.9089 1671.19 95.8679C1671.59 96.8833 1672.12 97.3909 1672.8 97.3909C1673.25 97.3909 1673.76 96.9115 1674.32 95.9525C1674.83 94.9935 1675.34 93.7807 1675.85 92.3141C1676.3 90.8474 1676.78 89.2398 1677.28 87.4911C1677.74 85.7988 1678.16 84.1911 1678.55 82.6681C1678.89 81.145 1679.17 79.8476 1679.4 78.7758C1679.62 77.704 1679.77 77.0835 1679.82 76.9143C1679.94 76.463 1680.05 75.9836 1680.16 75.4759C1680.27 74.9682 1680.39 74.4041 1680.5 73.7836C1679.2 75.1374 1677.99 76.5194 1676.86 77.9297C1675.68 79.3963 1674.66 80.8912 1673.81 82.4142C1672.91 83.9373 1672.21 85.4603 1671.7 86.9834C1671.14 88.5064 1670.83 90.0013 1670.77 91.4679Z" fill="white"/>
<path d="M1716.01 65.0683C1713.86 65.0683 1712.11 64.7299 1710.76 64.0529C1709.41 63.376 1708.33 62.5581 1707.54 61.5991C1706.81 60.5838 1706.27 59.512 1705.94 58.3838C1705.65 57.1992 1705.51 56.1274 1705.51 55.1685C1705.51 53.4762 1705.65 51.6993 1705.94 49.8378C1706.22 47.9198 1706.56 46.1711 1706.95 44.5917C1707.35 42.9558 1707.68 41.5738 1707.97 40.4456C1708.31 39.3174 1708.53 38.6123 1708.64 38.3302C1709.15 36.6944 1709.8 35.2841 1710.59 34.0995C1711.44 32.8585 1712.59 32.0124 1714.06 31.5611C1714.62 31.4483 1715.22 31.3355 1715.84 31.2226C1716.34 31.1662 1716.85 31.138 1717.36 31.138C1717.92 31.138 1718.43 31.2226 1718.88 31.3919C1717.36 35.2841 1716.15 38.5277 1715.24 41.1225C1714.4 43.7173 1713.75 45.8327 1713.3 47.4686C1712.79 49.3301 1712.48 50.8249 1712.37 51.9531C1712.08 54.4915 1712.31 56.4095 1713.04 57.7069C1713.78 59.0043 1715.27 59.653 1717.53 59.653C1718.99 59.653 1720.41 59.1171 1721.76 58.0453C1723.11 56.9171 1724.35 55.4787 1725.48 53.73C1725.31 52.8275 1725.23 51.8967 1725.23 50.9377C1725.23 49.1326 1725.37 47.3839 1725.65 45.6917C1725.99 43.943 1726.36 42.3353 1726.75 40.8687C1727.2 39.3456 1727.65 37.9918 1728.11 36.8072C1728.61 35.6226 1729.04 34.6918 1729.37 34.0149C1729.99 32.6611 1730.56 31.8431 1731.07 31.5611C1731.57 31.2226 1732.39 31.0252 1733.52 30.9688C1733.97 30.9124 1734.34 30.9124 1734.62 30.9688C1734.96 30.9688 1735.24 30.997 1735.47 31.0534C1736.14 31.2226 1736.48 31.5611 1736.48 32.0688C1736.48 32.9713 1736.43 34.3252 1736.31 36.1303C1736.2 37.9354 1735.86 39.7969 1735.3 41.7148C1734.9 43.2943 1734.51 44.6481 1734.11 45.7763C1733.77 46.8481 1733.44 47.7788 1733.1 48.5686C1732.76 49.3019 1732.42 49.9224 1732.08 50.4301C1731.74 50.8813 1731.43 51.3044 1731.15 51.6993C1731.26 53.3916 1731.41 54.7454 1731.57 55.7608C1731.74 56.7761 1731.94 57.5659 1732.17 58.13C1732.45 58.6376 1732.76 59.0043 1733.1 59.2299C1733.49 59.3992 1733.92 59.4838 1734.37 59.4838C1735.16 59.4838 1736.09 59.1171 1737.16 58.3838C1738.23 57.5941 1739.33 56.6351 1740.46 55.5069C1741.64 54.3223 1742.8 53.0531 1743.93 51.6993C1745.11 50.289 1746.18 48.9634 1747.14 47.7224C1748.1 46.4814 1748.92 45.4096 1749.6 44.5071C1750.27 43.5481 1750.7 42.9558 1750.87 42.7302C1751.26 42.2225 1751.63 41.9122 1751.97 41.7994C1752.36 41.6866 1752.67 41.743 1752.9 41.9686C1753.12 42.1379 1753.24 42.4481 1753.24 42.8994C1753.29 43.2943 1753.18 43.7455 1752.9 44.2532C1751.77 46.3968 1750.36 48.6814 1748.67 51.107C1747.03 53.4762 1745.25 55.6761 1743.34 57.7069C1741.47 59.7376 1739.58 61.4299 1737.67 62.7837C1735.75 64.1376 1733.94 64.8145 1732.25 64.8145C1730.73 64.8145 1729.52 64.3068 1728.61 63.2914C1727.77 62.2196 1727.03 60.6966 1726.41 58.7223C1725.12 60.753 1723.59 62.3325 1721.84 63.4606C1720.09 64.5324 1718.15 65.0683 1716.01 65.0683Z" fill="white"/>
<path d="M1763.78 13.8767C1763.61 14.4972 1763.27 15.1177 1762.77 15.7382C1762.31 16.3023 1761.78 16.7818 1761.16 17.1767C1760.59 17.5151 1760 17.7408 1759.38 17.8536C1758.76 17.9664 1758.25 17.8536 1757.86 17.5151C1756.67 16.6126 1756.05 15.6536 1756 14.6383C1755.94 13.5665 1756.19 12.5793 1756.76 11.6768C1757.32 10.7178 1758.03 9.92807 1758.87 9.30756C1759.72 8.63065 1760.45 8.23578 1761.07 8.12296C1761.69 8.01014 1762.2 8.15117 1762.6 8.54603C1763.05 8.88449 1763.39 9.36397 1763.61 9.98448C1763.84 10.5486 1763.95 11.1973 1763.95 11.9306C1764.01 12.6639 1763.95 13.3126 1763.78 13.8767ZM1752.1 31.8996C1752.39 31.5611 1752.92 31.279 1753.71 31.0534C1754.5 30.8278 1755.32 30.6585 1756.17 30.5457C1757.01 30.3765 1757.77 30.2919 1758.45 30.2919C1759.18 30.2355 1759.61 30.2355 1759.72 30.2919C1759.78 30.3483 1759.63 30.9406 1759.3 32.0688C1758.96 33.197 1758.53 34.5226 1758.03 36.0456C1757.52 37.5687 1756.98 39.1482 1756.42 40.784C1755.85 42.3635 1755.43 43.6609 1755.15 44.6763C1754.87 45.6917 1754.53 46.8481 1754.13 48.1455C1753.74 49.3865 1753.37 50.6275 1753.03 51.8685C1752.75 53.0531 1752.55 54.1813 1752.44 55.2531C1752.33 56.3249 1752.41 57.1428 1752.7 57.7069C1752.98 58.3838 1753.29 58.8633 1753.63 59.1453C1753.97 59.371 1754.33 59.4838 1754.73 59.4838C1755.85 59.4838 1757.27 58.8633 1758.96 57.6223C1760.71 56.3813 1762.45 54.9146 1764.2 53.2223C1766.01 51.4736 1767.67 49.7249 1769.2 47.9762C1770.72 46.1711 1771.85 44.7327 1772.58 43.6609C1773.03 43.0968 1773.48 42.7302 1773.93 42.5609C1774.44 42.3917 1774.84 42.4199 1775.12 42.6456C1775.46 42.8712 1775.63 43.2379 1775.63 43.7455C1775.68 44.2532 1775.51 44.8455 1775.12 45.5224C1774.22 47.1019 1772.89 48.9916 1771.14 51.1916C1769.39 53.3351 1767.53 55.4223 1765.56 57.453C1763.58 59.4274 1761.64 61.1197 1759.72 62.5299C1757.86 63.9401 1756.33 64.6735 1755.15 64.7299C1754.19 64.7863 1753.23 64.617 1752.27 64.2222C1751.37 63.8837 1750.52 63.4042 1749.73 62.7837C1749 62.1068 1748.38 61.3453 1747.87 60.4991C1747.37 59.5966 1747.08 58.6658 1747.03 57.7069C1746.86 56.2966 1746.86 54.3787 1747.03 51.9531C1747.2 49.4711 1747.51 46.9609 1747.96 44.4225C1748.41 41.8276 1748.97 39.3738 1749.65 37.061C1750.38 34.7482 1751.2 33.0277 1752.1 31.8996Z" fill="white"/>
<path d="M1792.77 48.6532C1791.3 50.7967 1789.78 52.8839 1788.2 54.9146C1786.68 56.9454 1785.18 58.7787 1783.72 60.4145C1782.31 61.994 1780.98 63.2632 1779.74 64.2222C1778.56 65.2375 1777.6 65.7452 1776.86 65.7452C1775.11 65.7452 1773.68 64.9273 1772.55 63.2914C1771.48 61.5991 1770.63 59.5402 1770.01 57.1146C1769.45 54.6326 1769.08 52.0095 1768.91 49.2455C1768.8 46.425 1768.83 43.9148 1768.99 41.7148C1769.22 39.5148 1769.47 37.7661 1769.76 36.4687C1770.04 35.1149 1770.38 34.0713 1770.77 33.338C1771.22 32.6047 1771.73 32.0688 1772.29 31.7303C1772.91 31.3919 1773.68 31.1098 1774.58 30.8842C1774.97 30.7714 1775.43 30.6867 1775.93 30.6303C1776.44 30.5739 1776.89 30.6021 1777.29 30.715C1777.74 30.7714 1778.08 30.9406 1778.3 31.2226C1778.53 31.5047 1778.56 31.9278 1778.39 32.4919C1778.27 32.9995 1778.08 33.7611 1777.79 34.7764C1777.57 35.7354 1777.31 36.8354 1777.03 38.0764C1776.75 39.3174 1776.47 40.6148 1776.19 41.9686C1775.96 43.3225 1775.79 44.6199 1775.68 45.8609C1775.51 48.0045 1775.51 49.8942 1775.68 51.53C1775.85 53.1095 1776.1 54.4633 1776.44 55.5915C1776.78 56.6633 1777.15 57.4812 1777.54 58.0453C1777.94 58.6094 1778.25 58.8915 1778.47 58.8915C1778.75 58.8915 1779.26 58.5248 1779.99 57.7915C1780.78 57.0018 1781.66 55.9864 1782.62 54.7454C1783.63 53.5044 1784.68 52.0659 1785.75 50.4301C1786.88 48.7942 1787.92 47.1019 1788.88 45.3532C1788.54 44.4507 1788.4 43.3789 1788.46 42.1379C1788.62 40.2199 1789.05 38.4995 1789.72 36.9764C1790.4 35.3969 1791.16 34.0713 1792.01 32.9995C1792.91 31.9278 1793.81 31.1098 1794.72 30.5457C1795.68 29.9252 1796.52 29.615 1797.26 29.615C1798.72 29.615 1799.62 30.0098 1799.96 30.7996C1800.36 31.5329 1800.5 32.2944 1800.39 33.0842C1800.27 34.2687 1799.74 35.9046 1798.78 37.9918C1797.88 40.0225 1796.69 42.2507 1795.22 44.6763C1795.51 44.7891 1795.82 44.9019 1796.16 45.0148C1796.49 45.1276 1796.89 45.184 1797.34 45.184C1799.26 45.184 1800.98 44.9583 1802.5 44.5071C1804.08 44.0558 1805.44 43.5199 1806.56 42.8994C1807.75 42.2789 1808.73 41.6302 1809.52 40.9533C1810.37 40.2199 1811.05 39.6276 1811.56 39.1764C1811.89 38.8379 1812.23 38.6687 1812.57 38.6687C1812.91 38.6687 1813.19 38.7533 1813.42 38.9225C1813.64 39.0918 1813.76 39.3456 1813.76 39.6841C1813.76 40.0225 1813.59 40.3892 1813.25 40.784C1811.22 43.2661 1808.73 45.2686 1805.8 46.7916C1802.92 48.3147 1799.54 49.0762 1795.65 49.0762C1795.31 49.0762 1794.89 49.048 1794.38 48.9916C1793.87 48.9352 1793.34 48.8224 1792.77 48.6532Z" fill="white"/>
<path d="M1842.41 46.1147C1840.72 48.5968 1838.8 51.0224 1836.65 53.3916C1834.51 55.7043 1832.23 57.7915 1829.8 59.653C1827.43 61.4581 1824.98 62.9248 1822.44 64.0529C1819.96 65.1811 1817.53 65.7452 1815.16 65.7452C1813.92 65.7452 1812.57 65.435 1811.1 64.8145C1809.69 64.2504 1808.39 63.3478 1807.21 62.1068C1806.02 60.8658 1805.06 59.2581 1804.33 57.2838C1803.65 55.3095 1803.46 52.9121 1803.74 50.0916C1803.96 47.7788 1804.67 45.3532 1805.85 42.8148C1807.1 40.2199 1808.59 37.8507 1810.34 35.7072C1812.14 33.5636 1814.15 31.7867 1816.35 30.3765C1818.6 28.9663 1820.86 28.2611 1823.12 28.2611C1825.26 28.2611 1826.81 28.797 1827.77 29.8688C1828.73 30.9406 1829.15 32.2662 1829.04 33.8457C1828.87 35.5944 1828.36 37.202 1827.52 38.6687C1826.73 40.1353 1825.77 41.461 1824.64 42.6456C1823.51 43.8302 1822.3 44.9019 1821 45.8609C1819.76 46.8199 1818.57 47.6942 1817.45 48.4839C1816.21 49.3301 1815.02 50.148 1813.89 50.9377C1812.76 51.6711 1811.78 52.348 1810.93 52.9685C1810.99 54.3787 1811.24 55.5633 1811.69 56.5223C1812.14 57.4812 1812.71 58.271 1813.39 58.8915C1814.06 59.4556 1814.82 59.8786 1815.67 60.1607C1816.57 60.3863 1817.47 60.4991 1818.38 60.4991C1820.3 60.4991 1822.3 59.9069 1824.38 58.7223C1826.47 57.4812 1828.5 56.0146 1830.48 54.3223C1832.51 52.5736 1834.37 50.7685 1836.06 48.907C1837.81 47.0455 1839.25 45.4378 1840.38 44.084C1840.77 43.6327 1841.17 43.3789 1841.56 43.3225C1842.01 43.2096 1842.35 43.2661 1842.58 43.4917C1842.86 43.6609 1843 43.9994 1843 44.5071C1843 44.9583 1842.8 45.4942 1842.41 46.1147ZM1820.75 33.0842C1820.07 33.0842 1819.25 33.4226 1818.29 34.0995C1817.39 34.7764 1816.49 35.7636 1815.58 37.061C1814.68 38.302 1813.84 39.8533 1813.05 41.7148C1812.26 43.5199 1811.66 45.6071 1811.27 47.9762C1811.95 47.4686 1812.68 46.9609 1813.47 46.4532C1814.26 45.8891 1815.05 45.2968 1815.84 44.6763C1818.26 42.8148 1819.96 41.1789 1820.92 39.7687C1821.87 38.3584 1822.41 37.1456 1822.52 36.1303C1822.64 35.0585 1822.52 34.297 1822.18 33.8457C1821.85 33.338 1821.37 33.0842 1820.75 33.0842Z" fill="white"/>
</svg>
