<svg width="78" height="93" viewBox="0 0 78 93" fill="none" xmlns="http://www.w3.org/2000/svg">
<path d="M38.0786 13.5782L70.3391 33.4261C70.6615 33.6248 70.6544 34.0956 70.326 34.2846L38.0643 52.8511C37.9093 52.9401 37.7188 52.9397 37.5643 52.85L5.63729 34.2839C5.31138 34.0944 5.3047 33.6255 5.62488 33.4265L37.5527 13.579C37.7136 13.4792 37.9174 13.479 38.0786 13.5782Z" fill="white" stroke="#2661FF" stroke-width="5"/>
<path d="M2.78516 51.958L37.9067 71.5579C38.8268 72.0714 39.9487 72.0645 40.8624 71.5399L74.9689 51.958" stroke="#2661FF" stroke-width="5" stroke-linecap="round"/>
<path d="M2.78516 69.6455L37.4809 89.0078C38.6704 89.6716 40.1159 89.6844 41.3171 89.0418L74.9689 71.038" stroke="#2661FF" stroke-opacity="0.3" stroke-width="5" stroke-linecap="round"/>
</svg>
