<svg width="223" height="107" viewBox="0 0 223 107" fill="none" xmlns="http://www.w3.org/2000/svg">
<g clip-path="url(#clip0_1448_72)">
<path d="M1.50925 77.5198C0.979253 77.1698 0.719253 76.7898 0.719253 76.3798C0.659253 75.9698 0.749253 75.5598 0.979253 75.1498C1.21925 74.6798 1.56925 74.2098 2.03925 73.7398C2.50925 73.3298 3.05925 72.2798 3.70925 70.5798C4.34925 68.9398 5.02925 66.9498 5.72925 64.5998C6.48925 62.1998 7.21925 59.5898 7.92925 56.7798C8.68925 53.9698 9.38925 51.2098 10.0393 48.5198C10.6793 45.8198 11.2393 43.3298 11.7093 41.0498C12.1693 38.7598 12.5293 36.9498 12.7593 35.5998C13.0493 33.9598 13.3793 32.1698 13.7293 30.2398C14.0193 28.5398 14.3393 26.5798 14.6893 24.3498C15.0493 22.0598 15.3693 19.5498 15.6593 16.7898L22.6893 13.6298C23.6893 13.1598 24.3893 13.2798 24.7993 13.9798C25.2093 14.6198 25.2093 15.9998 24.7993 18.1098C24.6293 19.1598 24.2993 20.8898 23.8393 23.2998C23.3693 25.6398 22.8093 28.2498 22.1693 31.1198C21.5793 33.9298 20.9293 36.8298 20.2293 39.8198C19.5893 42.7498 18.9393 45.3598 18.2993 47.6398C17.7093 49.8098 17.0393 52.2998 16.2793 55.1098C14.9293 59.9098 13.0493 66.4798 10.6493 74.7998C11.4693 76.2098 12.9993 76.9098 15.2193 76.9098C17.6793 76.9098 20.5193 75.9698 23.7493 74.0998C27.0293 72.2198 30.1893 69.4098 33.2393 65.6598C36.2893 61.9098 38.9493 57.2198 41.2393 51.5998C43.5793 45.9198 45.0493 39.2998 45.6293 31.7398C45.9193 27.6398 45.7193 24.0298 45.0193 20.9298C44.3093 17.8198 43.2293 15.2198 41.7593 13.1098C40.3593 10.9998 38.5993 9.41977 36.4893 8.35977C34.4393 7.30976 32.1593 6.77977 29.6393 6.77977C23.7193 6.77977 17.5893 9.23977 11.2693 14.1598L10.8293 6.86977C12.3493 5.16977 14.0793 3.87977 16.0093 2.99977C17.9993 2.05977 19.8493 1.35977 21.5493 0.889766C23.5393 0.359766 25.5593 0.0697656 27.6093 0.00976562C31.3593 0.00976562 34.9693 0.739766 38.4193 2.20977C41.9393 3.61977 44.9593 5.77977 47.4793 8.70977C50.0592 11.6398 52.0193 15.3298 53.3693 19.7798C54.7093 24.1698 55.1793 29.3298 54.7693 35.2498C54.5393 38.6498 53.8393 42.1898 52.6593 45.8798C51.5493 49.5098 50.0593 53.0898 48.1793 56.5998C46.3593 60.1198 44.1993 63.4598 41.6793 66.6198C39.1593 69.7798 36.3993 72.5398 33.4193 74.8798C30.4293 77.2798 27.2293 79.1598 23.8393 80.4998C20.4393 81.9098 16.9193 82.6098 13.2893 82.6098C12.1693 82.5498 10.9693 82.3498 9.67925 81.9898C8.56925 81.6998 7.30925 81.1998 5.90925 80.4998C4.49925 79.7998 3.02925 78.7998 1.50925 77.5098V77.5198Z" fill="white"/>
<path d="M78.0285 11.8698C78.0285 12.3998 77.8285 13.0398 77.4185 13.7998C77.0585 14.4998 76.5685 15.1798 75.9185 15.8198C75.3385 16.4098 74.6585 16.9298 73.8985 17.3998C73.1985 17.8098 72.4585 18.0198 71.6985 18.0198C71.0585 18.0198 70.4685 17.6998 69.9385 17.0498C69.4185 16.4098 69.1785 15.5298 69.2385 14.4098C69.2385 13.6498 69.4485 12.8598 69.8585 12.0398C70.3285 11.1598 70.8785 10.3698 71.5285 9.6698C72.2285 8.9698 72.9585 8.4098 73.7185 7.9998C74.5385 7.5298 75.3085 7.2998 76.0085 7.2998C76.9985 7.2998 77.5885 7.7698 77.7685 8.7098C77.9985 9.6498 78.0885 10.6998 78.0285 11.8698ZM47.2685 106.08C45.6885 106.08 44.3085 105.64 43.1385 104.76C41.9685 103.88 41.0285 102.77 40.3285 101.42C39.5585 100.07 39.0085 98.6098 38.6585 97.0298C38.2985 95.4498 38.1585 93.9498 38.2185 92.5498C38.2685 91.3198 38.7385 89.7398 39.6185 87.7998C40.4385 85.8698 41.6085 83.7898 43.1385 81.5598C44.6585 79.3898 46.5085 77.1698 48.6685 74.8798C50.8385 72.6498 53.2485 70.6598 55.8785 68.8998C56.2285 67.0798 56.6085 65.2398 57.0185 63.3598C57.3785 61.4298 57.7285 59.5798 58.0785 57.8198C58.4285 55.9998 58.7785 54.2998 59.1285 52.7198C59.5385 51.0798 59.9185 49.6398 60.2785 48.4098C60.6885 46.8298 61.1285 45.1598 61.5885 43.3998C61.9985 41.8798 62.4685 40.2098 62.9985 38.3898C63.5285 36.5098 64.0885 34.6398 64.6685 32.7698C65.2585 32.4798 65.8085 32.2698 66.3385 32.1498C66.8685 32.0298 67.3385 31.9398 67.7485 31.8898C68.2185 31.8298 68.6585 31.8298 69.0685 31.8898C69.4785 31.9498 69.8885 32.0698 70.2985 32.2398C71.0585 32.5298 71.7285 33.0598 72.3185 33.8198C71.3185 36.9798 70.4685 39.6798 69.7685 41.9098C69.1185 44.1398 68.5685 45.9798 68.0985 47.4498C67.5685 49.1498 67.1585 50.5798 66.8685 51.7598C66.3385 53.3998 65.8685 55.2798 65.4585 57.3898C65.0485 59.4398 64.5785 61.6698 64.0585 64.0698C66.5185 62.5498 68.9785 60.7598 71.4385 58.7098C73.9585 56.6598 76.2385 54.6698 78.2885 52.7298C80.3985 50.7398 82.1585 49.0098 83.5685 47.5398C85.0285 46.0198 85.9385 45.0498 86.2885 44.6398C86.6985 44.1698 87.1085 43.9398 87.5185 43.9398C87.9285 43.8798 88.2485 43.9998 88.4885 44.2898C88.7785 44.5798 88.8985 45.0198 88.8385 45.6098C88.8385 46.1398 88.5785 46.7498 88.0485 47.4598C87.2285 48.6298 85.9985 50.1298 84.3585 51.9398C82.7185 53.6998 80.8385 55.5698 78.7285 57.5698C76.6185 59.4998 74.3385 61.4698 71.8785 63.4598C69.4785 65.3898 67.0685 67.0598 64.6685 68.4698C64.1385 68.7598 63.5585 69.1398 62.9085 69.6098C62.0885 73.0698 61.2985 76.4698 60.5385 79.8098C59.7785 83.1498 58.9285 86.2598 57.9885 89.1298C57.1085 91.9398 56.3185 94.3998 55.6185 96.5098C54.9185 98.6798 54.1785 100.47 53.4185 101.87C52.6585 103.28 51.8085 104.33 50.8685 105.03C49.8785 105.73 48.6685 106.09 47.2685 106.09V106.08ZM44.0985 95.0098C43.9885 97.0598 44.1285 98.5798 44.5385 99.5798C44.9485 100.63 45.5085 101.16 46.2085 101.16C46.6785 101.16 47.2085 100.66 47.7985 99.6698C48.3185 98.6698 48.8485 97.4098 49.3785 95.8898C49.8485 94.3698 50.3385 92.6998 50.8685 90.8798C51.3385 89.1198 51.7785 87.4498 52.1885 85.8698C52.5385 84.2898 52.8385 82.9398 53.0685 81.8298C53.2985 80.7198 53.4485 80.0698 53.5085 79.8998C53.6285 79.4298 53.7385 78.9298 53.8585 78.4098C53.9785 77.8798 54.0885 77.2998 54.2085 76.6498C52.8585 78.0598 51.5985 79.4898 50.4285 80.9598C49.1985 82.4798 48.1485 84.0398 47.2685 85.6198C46.3285 87.1998 45.5985 88.7798 45.0685 90.3698C44.4885 91.9498 44.1585 93.4998 44.0985 95.0298V95.0098Z" fill="white"/>
<path d="M91.0895 67.5902C88.8695 67.5902 87.0495 67.2402 85.6395 66.5402C84.2395 65.8402 83.1195 64.9902 82.2995 63.9902C81.5395 62.9402 80.9895 61.8202 80.6295 60.6502C80.3395 59.4202 80.1895 58.3102 80.1895 57.3102C80.1895 55.5502 80.3395 53.7102 80.6295 51.7702C80.9295 49.7802 81.2795 47.9602 81.6895 46.3202C82.0995 44.6202 82.4495 43.1902 82.7395 42.0102C83.0895 40.8402 83.3295 40.1102 83.4495 39.8102C83.9695 38.1102 84.6495 36.6502 85.4695 35.4202C86.3495 34.1302 87.5495 33.2502 89.0695 32.7802C89.6595 32.6602 90.2695 32.5502 90.9195 32.4302C91.4395 32.3702 91.9695 32.3402 92.4995 32.3402C93.0895 32.3402 93.6095 32.4302 94.0795 32.6002C92.4995 36.6402 91.2395 40.0102 90.2995 42.7102C89.4195 45.4102 88.7495 47.6002 88.2795 49.3002C87.7495 51.2302 87.4295 52.7902 87.3095 53.9602C87.0195 56.6002 87.2495 58.5902 88.0195 59.9402C88.7795 61.2902 90.3295 61.9602 92.6695 61.9602C94.1995 61.9602 95.6595 61.4002 97.0695 60.2902C98.4795 59.1202 99.7595 57.6202 100.939 55.8102C100.759 54.8702 100.669 53.9102 100.669 52.9102C100.669 51.0302 100.819 49.2202 101.109 47.4602C101.459 45.6402 101.839 43.9702 102.249 42.4502C102.719 40.8702 103.189 39.4602 103.659 38.2302C104.189 37.0002 104.629 36.0302 104.979 35.3302C105.619 33.9202 106.209 33.0702 106.739 32.7802C107.259 32.4302 108.109 32.2202 109.289 32.1602C109.749 32.1002 110.139 32.1002 110.429 32.1602C110.779 32.1602 111.069 32.1902 111.309 32.2502C112.009 32.4302 112.359 32.7802 112.359 33.3002C112.359 34.2402 112.299 35.6402 112.189 37.5202C112.069 39.4002 111.719 41.3302 111.129 43.3202C110.719 44.9602 110.309 46.3702 109.899 47.5402C109.549 48.6502 109.199 49.6202 108.849 50.4402C108.499 51.2002 108.139 51.8502 107.789 52.3702C107.439 52.8402 107.119 53.2802 106.829 53.6902C106.939 55.4502 107.089 56.8502 107.259 57.9102C107.439 58.9602 107.649 59.7902 107.879 60.3702C108.169 60.9002 108.499 61.2802 108.849 61.5102C109.259 61.6902 109.699 61.7702 110.169 61.7702C110.989 61.7702 111.949 61.3902 113.069 60.6302C114.179 59.8102 115.319 58.8102 116.489 57.6402C117.719 56.4102 118.919 55.0902 120.099 53.6802C121.329 52.2202 122.439 50.8402 123.439 49.5502C124.429 48.2602 125.279 47.1502 125.989 46.2102C126.689 45.2102 127.129 44.6002 127.299 44.3602C127.709 43.8302 128.089 43.5102 128.449 43.3902C128.859 43.2702 129.179 43.3302 129.409 43.5702C129.649 43.7502 129.759 44.0702 129.759 44.5402C129.819 44.9502 129.709 45.4202 129.409 45.9502C128.239 48.1802 126.779 50.5502 125.019 53.0702C123.319 55.5302 121.469 57.8202 119.479 59.9302C117.549 62.0402 115.589 63.8002 113.589 65.2002C111.599 66.6102 109.729 67.3102 107.969 67.3102C106.389 67.3102 105.129 66.7802 104.189 65.7302C103.309 64.6202 102.549 63.0302 101.899 60.9802C100.559 63.0902 98.9695 64.7302 97.1595 65.9002C95.3395 67.0102 93.3195 67.5702 91.0895 67.5702V67.5902Z" fill="white"/>
<path d="M140.719 14.41C140.539 15.05 140.189 15.7 139.659 16.34C139.189 16.93 138.639 17.42 137.989 17.83C137.409 18.18 136.789 18.42 136.149 18.53C135.499 18.65 134.979 18.53 134.569 18.18C133.339 17.24 132.689 16.25 132.629 15.19C132.569 14.08 132.839 13.05 133.419 12.11C134.009 11.11 134.739 10.29 135.619 9.64999C136.499 8.94999 137.259 8.53999 137.909 8.41999C138.549 8.29999 139.079 8.44999 139.489 8.85999C139.959 9.20999 140.309 9.70999 140.539 10.35C140.779 10.94 140.889 11.61 140.889 12.37C140.949 13.13 140.889 13.81 140.719 14.39V14.41ZM128.589 33.13C128.879 32.78 129.439 32.49 130.259 32.25C131.079 32.02 131.929 31.84 132.809 31.72C133.689 31.54 134.479 31.46 135.179 31.46C135.939 31.4 136.379 31.4 136.499 31.46C136.559 31.52 136.409 32.13 136.059 33.31C135.709 34.48 135.269 35.86 134.739 37.44C134.209 39.02 133.659 40.66 133.069 42.36C132.489 44 132.049 45.35 131.749 46.4C131.459 47.45 131.109 48.66 130.699 50C130.289 51.29 129.909 52.58 129.559 53.87C129.259 55.1 129.059 56.27 128.939 57.39C128.819 58.51 128.909 59.35 129.199 59.94C129.499 60.64 129.819 61.14 130.169 61.43C130.519 61.66 130.899 61.78 131.309 61.78C132.489 61.78 133.949 61.14 135.709 59.85C137.519 58.56 139.339 57.04 141.159 55.28C143.029 53.46 144.759 51.65 146.339 49.83C147.919 47.95 149.099 46.46 149.859 45.35C150.329 44.76 150.799 44.38 151.259 44.21C151.789 44.03 152.199 44.06 152.499 44.3C152.849 44.53 153.019 44.92 153.019 45.44C153.079 45.97 152.909 46.58 152.499 47.29C151.559 48.93 150.179 50.89 148.359 53.18C146.549 55.41 144.609 57.57 142.559 59.68C140.509 61.73 138.489 63.49 136.499 64.95C134.569 66.41 132.979 67.18 131.749 67.24C130.759 67.3 129.759 67.12 128.759 66.71C127.829 66.36 126.949 65.86 126.129 65.22C125.369 64.52 124.719 63.73 124.189 62.85C123.669 61.91 123.369 60.95 123.319 59.95C123.139 58.49 123.139 56.49 123.319 53.97C123.489 51.39 123.809 48.78 124.279 46.15C124.749 43.45 125.339 40.91 126.039 38.5C126.799 36.1 127.649 34.31 128.589 33.14V33.13Z" fill="white"/>
<path d="M170.829 50.5393C169.309 52.7693 167.729 54.9293 166.089 57.0393C164.499 59.1493 162.949 61.0493 161.429 62.7493C159.959 64.3893 158.589 65.7093 157.299 66.7093C156.069 67.7593 155.069 68.2893 154.309 68.2893C152.489 68.2893 150.999 67.4393 149.829 65.7393C148.709 63.9793 147.829 61.8393 147.189 59.3193C146.599 56.7393 146.219 54.0193 146.049 51.1493C145.929 48.2193 145.959 45.6093 146.129 43.3293C146.369 41.0393 146.629 39.2293 146.919 37.8793C147.219 36.4693 147.569 35.3893 147.979 34.6293C148.449 33.8693 148.979 33.3093 149.559 32.9593C150.209 32.6093 150.999 32.3193 151.929 32.0793C152.339 31.9593 152.809 31.8693 153.339 31.8193C153.869 31.7593 154.339 31.7893 154.749 31.9093C155.219 31.9693 155.569 32.1393 155.799 32.4393C156.039 32.7293 156.069 33.1693 155.889 33.7593C155.769 34.2893 155.569 35.0793 155.269 36.1293C155.039 37.1293 154.779 38.2693 154.479 39.5593C154.189 40.8493 153.899 42.1993 153.599 43.5993C153.369 45.0093 153.189 46.3493 153.079 47.6393C152.899 49.8693 152.899 51.8293 153.079 53.5293C153.249 55.1693 153.519 56.5793 153.869 57.7493C154.219 58.8593 154.599 59.7093 155.009 60.2993C155.419 60.8893 155.739 61.1793 155.979 61.1793C156.269 61.1793 156.799 60.7993 157.559 60.0393C158.379 59.2193 159.289 58.1593 160.279 56.8793C161.339 55.5893 162.419 54.0993 163.539 52.3993C164.709 50.6993 165.789 48.9393 166.789 47.1293C166.439 46.1893 166.289 45.0793 166.349 43.7893C166.519 41.7993 166.959 40.0093 167.669 38.4293C168.369 36.7893 169.159 35.4093 170.039 34.2993C170.979 33.1893 171.919 32.3393 172.849 31.7493C173.849 31.1093 174.729 30.7793 175.489 30.7793C177.009 30.7793 177.949 31.1893 178.299 32.0093C178.709 32.7693 178.859 33.5593 178.739 34.3793C178.619 35.6093 178.069 37.3093 177.069 39.4793C176.129 41.5893 174.899 43.8993 173.379 46.4193C173.669 46.5393 173.999 46.6493 174.349 46.7693C174.699 46.8893 175.109 46.9493 175.579 46.9493C177.569 46.9493 179.359 46.7193 180.939 46.2493C182.579 45.7793 183.989 45.2193 185.159 44.5793C186.389 43.9393 187.409 43.2593 188.229 42.5593C189.109 41.7993 189.819 41.1793 190.339 40.7093C190.689 40.3593 191.049 40.1793 191.399 40.1793C191.749 40.1793 192.039 40.2693 192.279 40.4393C192.509 40.6193 192.629 40.8793 192.629 41.2293C192.629 41.5793 192.449 41.9593 192.099 42.3693C189.989 44.9493 187.409 47.0293 184.369 48.6093C181.379 50.1893 177.859 50.9793 173.819 50.9793C173.469 50.9793 173.029 50.9493 172.499 50.8893C171.969 50.8293 171.419 50.7093 170.829 50.5393Z" fill="white"/>
<path d="M222.39 47.8996C220.63 50.4796 218.64 52.9996 216.41 55.4596C214.19 57.8596 211.81 60.0296 209.29 61.9596C206.83 63.8396 204.28 65.3596 201.65 66.5296C199.07 67.6996 196.55 68.2896 194.09 68.2896C192.8 68.2896 191.39 67.9696 189.87 67.3196C188.41 66.7296 187.06 65.7996 185.83 64.5096C184.6 63.2196 183.6 61.5496 182.84 59.4996C182.14 57.4496 181.93 54.9596 182.22 52.0296C182.46 49.6296 183.19 47.1096 184.42 44.4696C185.71 41.7696 187.26 39.3096 189.08 37.0896C190.95 34.8596 193.03 33.0196 195.32 31.5496C197.66 30.0896 200.01 29.3496 202.35 29.3496C204.69 29.3496 206.19 29.9096 207.18 31.0196C208.18 32.1296 208.62 33.5096 208.5 35.1496C208.33 36.9696 207.8 38.6396 206.92 40.1596C206.1 41.6796 205.1 43.0596 203.93 44.2896C202.76 45.5196 201.5 46.6296 200.15 47.6296C198.86 48.6296 197.63 49.5296 196.46 50.3496C195.17 51.2296 193.94 52.0796 192.77 52.8996C191.6 53.6596 190.57 54.3596 189.69 55.0096C189.75 56.4696 190.02 57.7096 190.49 58.6996C190.95 59.6996 191.54 60.5196 192.24 61.1596C192.95 61.7496 193.74 62.1896 194.62 62.4796C195.55 62.7096 196.49 62.8296 197.43 62.8296C199.42 62.8296 201.5 62.2096 203.67 60.9796C205.84 59.6896 207.95 58.1696 210 56.4096C212.11 54.5896 214.04 52.7196 215.8 50.7796C217.61 48.8496 219.11 47.1796 220.28 45.7696C220.69 45.2996 221.1 45.0396 221.51 44.9796C221.98 44.8596 222.33 44.9196 222.57 45.1596C222.86 45.3396 223 45.6896 223 46.2096C223 46.6796 222.8 47.2396 222.39 47.8796V47.8996ZM199.89 34.3696C199.19 34.3696 198.34 34.7196 197.34 35.4196C196.4 36.1196 195.47 37.1496 194.53 38.4996C193.59 39.7896 192.71 41.3996 191.89 43.3296C191.07 45.2096 190.46 47.3696 190.05 49.8296C190.75 49.2996 191.51 48.7796 192.33 48.2496C193.15 47.6596 193.97 47.0496 194.79 46.3996C197.31 44.4696 199.07 42.7696 200.07 41.2996C201.06 39.8396 201.62 38.5796 201.74 37.5196C201.85 36.4096 201.74 35.6196 201.38 35.1496C201.03 34.6196 200.53 34.3596 199.89 34.3596V34.3696Z" fill="white"/>
</g>
<defs>
<clipPath id="clip0_1448_72">
<rect width="222.3" height="106.08" fill="white" transform="translate(0.699219)"/>
</clipPath>
</defs>
</svg>
