<svg width="385" height="68" viewBox="0 0 385 68" fill="none" xmlns="http://www.w3.org/2000/svg">
<g opacity="0.1" clip-path="url(#clip0_1448_53)">
<path d="M0.644531 67.3402V5.24023H12.1645L31.9645 47.3602L51.7645 5.24023H63.3745V67.3402H54.1945V20.0002L36.1045 58.6102H27.9145L9.73453 20.0002V67.3402H0.644531Z" fill="white"/>
<path d="M76.875 11.9004V2.36035H86.235V11.9004H76.875ZM77.235 67.3403V20.3604H85.965V67.3403H77.235Z" fill="white"/>
<path d="M98.2754 53.4804V34.1304C98.2754 24.9503 102.865 20.3604 112.045 20.3604H129.415L133.555 23.4204V28.0104H112.315C108.775 28.0104 107.005 29.7504 107.005 33.2304V54.3803C107.005 57.9203 108.775 59.6904 112.315 59.6904H133.555V64.2803L129.415 67.3403H112.045C102.865 67.3403 98.2754 62.7204 98.2754 53.4804Z" fill="white"/>
<path d="M143.334 67.3403V25.9404C145.434 22.2204 149.424 20.3604 155.304 20.3604H164.574L168.714 23.4204V28.0104H157.014C154.674 28.0104 153.024 28.6104 152.064 29.8104V67.3403H143.334Z" fill="white"/>
<path d="M176.344 53.4804V34.1304C176.344 24.9503 180.934 20.3604 190.114 20.3604H202.714C211.894 20.3604 216.484 24.9503 216.484 34.1304V53.4804C216.484 62.7204 211.894 67.3403 202.714 67.3403H190.114C180.934 67.3403 176.344 62.7204 176.344 53.4804ZM185.074 54.3803C185.074 57.9203 186.844 59.6904 190.384 59.6904H202.534C206.014 59.6904 207.754 57.9203 207.754 54.3803V33.2304C207.754 29.7504 206.014 28.0104 202.534 28.0104H190.384C186.844 28.0104 185.074 29.7504 185.074 33.2304V54.3803Z" fill="white"/>
<path d="M226.994 64.2803V59.6904H247.784C251.324 59.6904 253.094 57.8904 253.094 54.2904C253.094 50.6904 251.654 48.4704 248.774 47.9904L238.424 46.2804C230.804 44.9604 226.994 40.7603 226.994 33.6803C226.994 24.8003 231.614 20.3604 240.854 20.3604H255.524L259.664 23.4204V28.0104H241.034C237.434 28.0104 235.634 29.8103 235.634 33.4103C235.634 36.7703 237.134 38.7204 240.134 39.2604L250.574 40.9704C258.074 42.2304 261.824 46.5504 261.824 53.9304C261.824 62.8703 257.174 67.3403 247.874 67.3403H231.134L226.994 64.2803Z" fill="white"/>
<path d="M272.254 53.4804V34.1304C272.254 24.9503 276.844 20.3604 286.024 20.3604H298.624C307.804 20.3604 312.394 24.9503 312.394 34.1304V53.4804C312.394 62.7204 307.804 67.3403 298.624 67.3403H286.024C276.844 67.3403 272.254 62.7204 272.254 53.4804ZM280.984 54.3803C280.984 57.9203 282.754 59.6904 286.294 59.6904H298.444C301.924 59.6904 303.664 57.9203 303.664 54.3803V33.2304C303.664 29.7504 301.924 28.0104 298.444 28.0104H286.294C282.754 28.0104 280.984 29.7504 280.984 33.2304V54.3803Z" fill="white"/>
<path d="M324.705 67.3402V14.6002C324.705 5.36023 329.295 0.740234 338.475 0.740234H346.845L350.985 3.80023V8.39023H338.745C335.205 8.39023 333.435 10.1602 333.435 13.7002V20.3602H350.085V28.0102H333.435V67.3402H324.705Z" fill="white"/>
<path d="M358.414 53.4802V5.24023H367.144V20.3602H383.794V28.0102H367.144V54.3802C367.144 57.9202 368.914 59.6902 372.454 59.6902H384.694V64.2802L380.554 67.3402H372.184C363.004 67.3402 358.414 62.7202 358.414 53.4802Z" fill="white"/>
</g>
<defs>
<clipPath id="clip0_1448_53">
<rect width="384.05" height="66.6" fill="white" transform="translate(0.644531 0.740234)"/>
</clipPath>
</defs>
</svg>
