<svg width="221" height="68" viewBox="0 0 221 68" fill="none" xmlns="http://www.w3.org/2000/svg">
<g clip-path="url(#clip0_1448_37)">
<path d="M26.1103 43.3998H9.64031V66.6198H0.820312V1.5498H26.1103C38.8903 1.5498 47.0803 9.9198 47.0803 22.4298C47.0803 34.9398 38.8003 43.3998 26.1103 43.3998ZM24.5803 9.4698H9.64031V35.4798H24.2203C32.9503 35.4798 37.8103 30.3498 37.8103 22.3398C37.8103 14.3298 32.8603 9.4698 24.5803 9.4698Z" fill="white"/>
<path d="M49.7305 44.5695C49.7305 30.9795 59.4505 21.4395 72.6805 21.4395C85.9105 21.4395 95.5405 30.9795 95.5405 44.5695C95.5405 58.1595 85.8205 67.6995 72.6805 67.6995C59.5405 67.6995 49.7305 58.1595 49.7305 44.5695ZM58.2805 44.5695C58.2805 53.7495 64.1305 60.1395 72.6805 60.1395C81.2305 60.1395 87.0805 53.7495 87.0805 44.5695C87.0805 35.3895 81.1405 28.9995 72.6805 28.9995C64.2205 28.9995 58.2805 35.3895 58.2805 44.5695Z" fill="white"/>
<path d="M129.1 22.25V29.99H125.32C117.31 29.99 112.36 34.85 112.36 43.31V66.62H103.9V22.7H111.82L112.36 29.36C114.16 24.77 118.57 21.71 124.6 21.71C126.13 21.71 127.39 21.89 129.1 22.25Z" fill="white"/>
<path d="M150.221 66.6198H141.761V29.7198H133.121V22.6098H141.761V8.83984H150.221V22.6098H158.861V29.7198H150.221V66.6198Z" fill="white"/>
<path d="M177.79 67.6996C168.34 67.6996 162.76 62.3896 162.76 54.3796C162.76 46.3696 168.79 41.2396 179.14 40.4296L193 39.3496V38.0896C193 30.7096 188.59 28.0996 182.65 28.0996C175.54 28.0996 171.49 31.2496 171.49 36.5596H164.11C164.11 27.3796 171.67 21.3496 183.01 21.3496C194.35 21.3496 201.28 27.1096 201.28 38.9896V66.6196H194.08L193.18 59.5096C190.93 64.5496 184.9 67.6996 177.79 67.6996ZM180.22 61.1296C188.23 61.1296 193.09 55.9096 193.09 47.6296V45.2896L181.84 46.1896C174.37 46.9096 171.31 49.7896 171.31 54.1096C171.31 58.7896 174.73 61.1296 180.22 61.1296Z" fill="white"/>
<path d="M220.64 66.6199H212.18V0.379883H220.64V66.6199Z" fill="white"/>
</g>
<defs>
<clipPath id="clip0_1448_37">
<rect width="219.82" height="67.32" fill="white" transform="translate(0.820312 0.379883)"/>
</clipPath>
</defs>
</svg>
