<svg width="196" height="106" viewBox="0 0 196 106" fill="none" xmlns="http://www.w3.org/2000/svg">
<g opacity="0.1" clip-path="url(#clip0_1448_23)">
<path d="M79.5061 63.8997V79.3497C73.0561 79.3497 67.5461 77.1997 62.9561 72.8997C62.9061 72.7997 62.8061 72.6797 62.6661 72.5297C62.5161 72.3297 62.3961 72.2097 62.2961 72.1597C57.1161 75.6797 51.4561 77.8697 45.3061 78.7497C39.1561 79.6297 33.0961 79.0897 27.1461 77.1397C21.1861 75.1397 15.9661 71.8397 11.4761 67.2497C6.54611 62.0697 3.22611 56.0897 1.51611 49.3097C-0.193885 42.4697 -0.123885 35.6897 1.73611 28.9497C3.63611 22.1597 7.15611 16.2797 12.2861 11.2997C17.4461 6.37973 23.4261 3.07973 30.2161 1.41973C37.0561 -0.290269 43.8361 -0.190269 50.5761 1.70973C57.3661 3.56973 63.2461 7.05973 68.2261 12.1797L68.5961 12.5497C73.2861 17.4797 76.4861 23.1897 78.1861 29.6897C79.8961 36.1397 79.9661 42.5797 78.4061 49.0297C76.8461 55.4797 73.7961 61.1897 69.2561 66.1697C69.6961 66.2197 70.3561 66.2397 71.2361 66.2397C74.1161 66.2397 76.8761 65.4597 79.5161 63.8997H79.5061ZM57.3161 58.9197C59.4661 61.7997 61.9761 63.8497 64.8561 65.0697C68.3761 61.2597 70.3461 56.3997 70.7861 50.4897C71.2761 43.8997 69.8061 37.3297 66.3961 30.7897C63.0261 24.1997 58.3361 18.7297 52.3361 14.3797C46.3761 10.0297 40.1261 7.63973 33.5861 7.19973C26.7461 6.70973 21.0161 8.51973 16.3761 12.6197C11.7861 16.6697 9.22611 22.1197 8.68611 28.9497C8.34611 33.9797 9.14611 39.0597 11.1061 44.1797C13.0561 49.3097 15.7461 53.8497 19.1661 57.7997C22.6361 61.7597 26.7061 65.0497 31.3961 67.6897C36.1361 70.2797 40.9661 71.7197 45.8961 72.0097C50.9761 72.3497 55.5161 71.4197 59.5161 69.2297C56.5861 65.8097 54.6361 62.3697 53.6561 58.8997H57.3161V58.9197Z" fill="white"/>
<path d="M138.195 76.2798C139.415 73.7898 140.075 71.5898 140.175 69.6898V39.9498C140.175 38.5298 139.715 37.2598 138.785 36.1398C137.905 35.0198 136.755 34.3798 135.345 34.2398C131.295 33.8498 127.625 36.8498 124.355 43.2498V69.7598V69.6898C124.455 71.5898 125.115 73.7898 126.335 76.2798C126.575 76.8198 126.845 77.3498 127.145 77.8898C127.485 78.3798 127.755 78.7398 127.945 78.9898L128.235 79.3598H108.895C109.625 78.5298 110.285 77.4998 110.875 76.2798C111.995 73.8898 112.635 71.6898 112.775 69.6898V39.9498C112.775 38.5298 112.335 37.2598 111.455 36.1398C110.575 35.0198 109.425 34.3798 108.015 34.2398C106.695 34.0898 105.455 34.2898 104.285 34.8298C103.115 35.3198 102.115 36.0298 101.285 36.9498C100.455 37.8798 99.7754 38.7598 99.2354 39.5898C98.6954 40.4198 98.1854 41.3198 97.6954 42.2998C97.2554 43.2298 97.0154 43.7198 96.9654 43.7598V69.7598C97.1654 71.7598 97.8154 73.9298 98.9454 76.2798C99.1854 76.8198 99.4554 77.3498 99.7554 77.8898C100.095 78.3798 100.365 78.7398 100.565 78.9898L100.855 79.3598H81.5954C82.3254 78.5298 82.9854 77.4998 83.5754 76.2798C84.5054 74.4198 85.1154 72.4498 85.4054 70.3498V36.9498C85.2554 34.9498 84.6254 32.7498 83.5054 30.3598C83.2654 29.8198 82.9654 29.3098 82.6254 28.8198C82.2854 28.2798 82.0154 27.9198 81.8154 27.7198L81.5254 27.3498H93.8254C94.7054 27.9398 95.4154 29.1598 95.9454 31.0098C96.4854 32.8198 96.8054 34.4998 96.8954 36.0598L96.9654 38.3998C100.135 34.6898 102.385 32.3498 103.705 31.3698C104.735 30.5898 105.485 30.0298 105.975 29.6898C106.465 29.3498 107.395 28.9098 108.755 28.3698C110.125 27.7798 111.465 27.4398 112.785 27.3398C115.665 27.1398 118.185 28.1698 120.325 30.4198C122.525 32.6698 123.845 35.3298 124.275 38.3998C127.305 34.8398 129.575 32.4898 131.085 31.3698C132.105 30.5898 132.865 30.0298 133.355 29.6898C133.845 29.3498 134.775 28.9098 136.135 28.3698C137.505 27.7798 138.845 27.4398 140.165 27.3398C143.335 27.1398 146.045 28.3898 148.295 31.0798C150.585 33.7698 151.735 36.7898 151.735 40.1598V69.7498V69.6798C151.885 71.6798 152.515 73.8798 153.635 76.2698C153.875 76.8098 154.175 77.3398 154.515 77.8798C154.855 78.3698 155.125 78.7298 155.325 78.9798L155.615 79.3498H136.275C136.955 78.5198 137.595 77.4898 138.175 76.2698L138.195 76.2798Z" fill="white"/>
<path d="M171.776 69.8293C171.976 71.9293 172.606 74.0993 173.676 76.3493C173.916 76.8893 174.216 77.4193 174.556 77.9593C174.896 78.4493 175.166 78.7893 175.356 78.9893L175.646 79.3593H156.306C157.036 78.5793 157.696 77.5793 158.286 76.3593C159.216 74.4993 159.826 72.4993 160.116 70.3493V36.9493C159.926 34.8493 159.286 32.6793 158.216 30.4293C157.976 29.8893 157.676 29.3793 157.336 28.8893C156.996 28.3493 156.726 27.9593 156.526 27.7193L156.236 27.3493H175.646C174.916 28.1793 174.256 29.2093 173.666 30.4293C172.596 32.6793 171.956 34.8493 171.766 36.9493V69.8393L171.776 69.8293ZM170.156 16.3593C168.986 17.5293 167.566 18.1193 165.906 18.1193C164.246 18.1193 162.826 17.5293 161.656 16.3593C160.486 15.1393 159.896 13.6993 159.896 12.0393C159.896 10.3793 160.486 8.9593 161.656 7.7893C162.826 6.6193 164.246 6.0293 165.906 6.0293C167.566 6.0293 168.986 6.6193 170.156 7.7893C171.376 8.9593 171.986 10.3793 171.986 12.0393C171.986 13.6993 171.376 15.1393 170.156 16.3593Z" fill="white"/>
<path d="M190.397 16.3593C189.227 17.5293 187.807 18.1193 186.147 18.1193C184.487 18.1193 183.067 17.5293 181.897 16.3593C180.727 15.1393 180.137 13.6993 180.137 12.0393C180.137 10.3793 180.727 8.9593 181.897 7.7893C183.067 6.6193 184.487 6.0293 186.147 6.0293C187.807 6.0293 189.227 6.6193 190.397 7.7893C191.567 8.9593 192.157 10.3793 192.157 12.0393C192.157 13.6993 191.567 15.1393 190.397 16.3593ZM176.487 27.3493H195.827C195.147 28.1793 194.507 29.2093 193.927 30.4293C192.807 32.7693 192.147 34.9693 191.947 37.0193V89.2393C191.897 93.8293 190.407 97.7393 187.477 100.959C184.597 104.179 180.907 105.819 176.417 105.869H173.047C173.247 105.769 173.507 105.599 173.857 105.359C174.197 105.119 174.787 104.529 175.617 103.599C176.447 102.669 177.177 101.619 177.817 100.449C178.457 99.3293 179.037 97.7393 179.577 95.6893C180.117 93.6893 180.387 91.5193 180.387 89.1693V37.0193C180.187 34.8193 179.557 32.6293 178.487 30.4293C178.247 29.8893 177.947 29.3793 177.607 28.8893C177.267 28.3493 176.997 27.9593 176.797 27.7193L176.507 27.3493H176.487Z" fill="white"/>
</g>
<defs>
<clipPath id="clip0_1448_23">
<rect width="195.54" height="105.66" fill="white" transform="translate(0.275391 0.209961)"/>
</clipPath>
</defs>
</svg>
