<svg width="248" height="249" viewBox="0 0 248 249" fill="none" xmlns="http://www.w3.org/2000/svg">
<path d="M120.563 2.25408C122.491 0.428782 125.509 0.428782 127.437 2.25408L133.666 8.15024C135.296 9.69371 137.755 9.96118 139.68 8.80428L147.03 4.38488C149.305 3.01674 152.253 3.66564 153.744 5.86275L158.559 12.96C159.819 14.8178 162.164 15.6077 164.292 14.8915L172.42 12.1555C174.936 11.3085 177.676 12.576 178.659 15.0421L181.836 23.0085C182.668 25.094 184.788 26.3694 187.02 26.1273L195.546 25.2026C198.186 24.9163 200.589 26.7431 201.019 29.363L202.409 37.8261C202.773 40.0416 204.569 41.7428 206.801 41.9863L215.327 42.9161C217.966 43.204 219.921 45.5046 219.778 48.1558L219.316 56.7199C219.195 58.9618 220.583 61.0093 222.711 61.7268L230.837 64.4678C233.353 65.3163 234.767 67.9832 234.058 70.5417L231.766 78.8063C231.166 80.9698 232.081 83.2679 234.005 84.426L241.352 88.8499C243.627 90.2194 244.434 93.1279 243.191 95.4741L239.176 103.053C238.125 105.037 238.526 107.478 240.155 109.022L246.38 114.922C248.307 116.749 248.47 119.763 246.752 121.787L241.202 128.325C239.749 130.037 239.615 132.507 240.874 134.366L245.685 141.466C247.174 143.664 246.686 146.643 244.573 148.25L237.747 153.443C235.96 154.802 235.298 157.185 236.128 159.271L239.3 167.24C240.282 169.706 239.165 172.511 236.756 173.626L228.973 177.23C226.936 178.173 225.777 180.359 226.14 182.574L227.524 191.038C227.953 193.659 226.259 196.157 223.666 196.729L215.291 198.575C213.099 199.058 211.497 200.944 211.375 203.185L210.908 211.749C210.763 214.4 208.572 216.476 205.917 216.477L197.34 216.479C195.095 216.48 193.126 217.977 192.524 220.14L190.227 228.404C189.516 230.962 186.93 232.518 184.337 231.948L175.96 230.107C173.767 229.625 171.522 230.663 170.47 232.647L166.45 240.223C165.206 242.568 162.346 243.532 159.936 242.418L152.151 238.819C150.113 237.877 147.697 238.409 146.243 240.12L140.688 246.655C138.969 248.678 135.968 249.004 133.854 247.398L127.025 242.21C125.237 240.852 122.763 240.852 120.975 242.21L114.146 247.398C112.032 249.004 109.031 248.678 107.312 246.655L101.757 240.12C100.303 238.409 97.8873 237.877 95.8494 238.819L88.0645 242.418C85.6545 243.532 82.794 242.568 81.5496 240.223L77.53 232.647C76.4777 230.663 74.2326 229.625 72.0398 230.107L63.6632 231.948C61.0701 232.518 58.4836 230.962 57.7725 228.404L55.4755 220.14C54.8742 217.977 52.9049 216.48 50.6597 216.479L42.0832 216.477C39.4282 216.476 37.2367 214.4 37.0922 211.749L36.6252 203.185C36.503 200.944 34.9015 199.058 32.709 198.575L24.3336 196.729C21.7408 196.157 20.0468 193.659 20.4755 191.038L21.8605 182.574C22.223 180.359 21.0643 178.173 19.0269 177.23L11.2442 173.626C8.83488 172.511 7.7176 169.706 8.69959 167.24L11.8716 159.271C12.702 157.185 12.0402 154.802 10.2533 153.443L3.42718 148.25C1.31399 146.643 0.825646 143.664 2.31496 141.466L7.12582 134.366C8.38519 132.507 8.25126 130.037 6.79832 128.325L1.24801 121.787C-0.470229 119.763 -0.306811 116.749 1.6202 114.922L7.84489 109.022C9.47438 107.478 9.8746 105.037 8.82357 103.053L4.80857 95.4741C3.56563 93.1279 4.37317 90.2194 6.64777 88.8499L13.9953 84.426C15.9187 83.2679 16.8343 80.9698 16.2343 78.8063L13.9424 70.5418C13.2329 67.9833 14.6468 65.3163 17.1626 64.4678L25.2893 61.7268C27.4167 61.0093 28.805 58.9618 28.6841 56.7199L28.2224 48.1558C28.0795 45.5046 30.0336 43.204 32.673 42.9161L41.199 41.9862C43.4309 41.7428 45.2269 40.0416 45.5908 37.8261L46.9809 29.363C47.4112 26.7431 49.8142 24.9163 52.4538 25.2026L60.9803 26.1273C63.2124 26.3694 65.3321 25.094 66.1637 23.0085L69.3406 15.0421C70.3241 12.576 73.0637 11.3085 75.58 12.1555L83.7084 14.8915C85.8362 15.6077 88.1805 14.8178 89.441 12.96L94.2562 5.86275C95.7469 3.66563 98.6949 3.01674 100.97 4.38488L108.32 8.80428C110.245 9.96118 112.704 9.69371 114.334 8.15024L120.563 2.25408Z" fill="black"/>
</svg>
