<svg width="302" height="66" viewBox="0 0 302 66" fill="none" xmlns="http://www.w3.org/2000/svg">
<g clip-path="url(#clip0_1448_13)">
<path d="M21.24 64.72V9.99996H0V2.25996H50.85V9.99996H29.7V64.72H21.24ZM66.51 65.62C53.64 65.62 43.92 56.08 43.92 43.3C43.92 30.52 53.55 21.07 65.97 21.07C77.67 21.07 86.13 29.89 86.13 42.04C86.13 43.3 86.04 44.65 85.68 46.36H52.2C53.46 53.47 58.86 57.97 66.51 57.97C71.28 57.97 75.51 56.35 78.3 52.93L83.52 58.24C79.38 63.01 73.26 65.62 66.51 65.62ZM65.79 28.54C58.59 28.54 53.46 32.86 52.2 39.61H78.21C77.31 32.68 72.81 28.54 65.79 28.54ZM112.14 65.62C100.35 65.62 91.26 55.9 91.26 43.39C91.26 30.88 100.35 21.07 112.14 21.07C118.17 21.07 123.3 23.59 126.36 27.82V21.97H134.55V64.72H126.36V58.96C123.3 63.1 118.26 65.62 112.14 65.62ZM113.49 57.97C121.5 57.97 126.9 52.03 126.9 43.39C126.9 34.75 121.5 28.72 113.4 28.72C105.3 28.72 99.63 34.75 99.63 43.3C99.63 51.85 105.39 57.97 113.49 57.97ZM145.35 64.72V21.97H153.45V26.92C156.42 23.23 161.01 21.07 166.32 21.07C172.44 21.07 177.57 23.95 180.36 28.81C183.33 23.95 188.73 21.07 194.85 21.07C204.03 21.07 211.32 27.28 211.32 37.27V64.72H203.13V38.89C203.13 32.5 198.81 28.63 192.96 28.63C187.11 28.63 182.34 32.5 182.34 38.8V64.72H174.24V38.89C174.24 32.5 169.92 28.63 163.98 28.63C158.04 28.63 153.45 32.5 153.45 38.8V64.72H145.35ZM225.48 13.42C222.51 13.42 220.35 11.17 220.35 8.19996C220.35 5.22996 222.51 3.06996 225.48 3.06996C228.45 3.06996 230.61 5.31996 230.61 8.19996C230.61 11.08 228.45 13.42 225.48 13.42ZM221.43 64.72V21.97H229.53V64.72H221.43ZM240.47 64.72V0.459961H248.57V64.72H240.47ZM278.95 65.62C266.44 65.62 256.63 55.72 256.63 43.21C256.63 30.7 266.35 21.07 278.95 21.07C291.55 21.07 301.27 30.79 301.27 43.21C301.27 55.63 291.46 65.62 278.95 65.62ZM278.95 57.79C287.05 57.79 292.9 51.67 292.9 43.21C292.9 34.75 286.96 28.9 278.95 28.9C270.94 28.9 265 34.93 265 43.21C265 51.49 270.85 57.79 278.95 57.79Z" fill="white"/>
</g>
<defs>
<clipPath id="clip0_1448_13">
<rect width="301.27" height="65.16" fill="white" transform="translate(0 0.459961)"/>
</clipPath>
</defs>
</svg>
