<svg width="52" height="59" viewBox="0 0 52 59" fill="none" xmlns="http://www.w3.org/2000/svg">
<path fill-rule="evenodd" clip-rule="evenodd" d="M29.1394 0.418296L29.4575 22.4074C29.471 23.4705 29.7851 24.4688 30.3687 25.3026C30.9522 26.1364 31.7322 26.7015 32.6305 26.9413L51.2049 31.947L31.9942 32.954C31.0656 33.0004 30.1846 33.3898 29.4395 34.083C28.6943 34.7762 28.1781 35.6866 27.9425 36.7233L23.0287 58.1587L22.7106 36.1696C22.6972 35.1066 22.383 34.1082 21.7994 33.2744C21.2159 32.4406 20.4359 31.8755 19.5376 31.6357L0.963228 26.63L20.1739 25.6231C21.1026 25.5766 21.9835 25.1873 22.7287 24.4941C23.4738 23.8009 23.99 22.8904 24.2257 21.8538L29.1394 0.418296Z" fill="#2661FF"/>
</svg>
